<svg width="1920" height="1080" viewBox="0 0 1920 1080" fill="none" xmlns="http://www.w3.org/2000/svg">
  <defs>
    <linearGradient id="bg" x1="0" y1="0" x2="1920" y2="1080" gradientUnits="userSpaceOnUse">
      <stop stop-color="#FFE6BF"/>
      <stop offset="1" stop-color="#EAF4FF"/>
    </linearGradient>
    <linearGradient id="bubble" x1="0" y1="0" x2="1" y2="1">
      <stop stop-color="#FFFFFF" stop-opacity="0.9"/>
      <stop offset="1" stop-color="#FFFFFF" stop-opacity="0.3"/>
    </linearGradient>
  </defs>

  <rect width="1920" height="1080" fill="url(#bg)"/>

  <circle cx="230" cy="210" r="120" fill="url(#bubble)"/>
  <circle cx="520" cy="130" r="70" fill="url(#bubble)"/>
  <circle cx="760" cy="260" r="95" fill="url(#bubble)"/>
  <circle cx="1500" cy="170" r="110" fill="url(#bubble)"/>
  <circle cx="1740" cy="310" r="75" fill="url(#bubble)"/>

  <rect x="180" y="420" width="720" height="420" rx="36" fill="#FFFFFF" fill-opacity="0.7"/>
  <rect x="220" y="470" width="320" height="36" rx="18" fill="#D9E8F8"/>
  <rect x="220" y="532" width="460" height="28" rx="14" fill="#E5EEF8"/>
  <rect x="220" y="580" width="390" height="28" rx="14" fill="#E5EEF8"/>
  <rect x="220" y="628" width="280" height="28" rx="14" fill="#E5EEF8"/>

  <circle cx="1280" cy="590" r="210" fill="#FFF4DF"/>
  <circle cx="1280" cy="560" r="140" fill="#FAD9A6"/>
  <circle cx="1280" cy="560" r="108" fill="#FFE8C8"/>
  <rect x="1130" y="700" width="300" height="190" rx="95" fill="#9FD1FF"/>

  <circle cx="1120" cy="430" r="38" fill="#FFFFFF" fill-opacity="0.75"/>
  <circle cx="1450" cy="445" r="30" fill="#FFFFFF" fill-opacity="0.75"/>
</svg>
<svg width="1920" height="1080" viewBox="0 0 1920 1080" fill="none" xmlns="http://www.w3.org/2000/svg">
  <defs>
    <linearGradient id="bg" x1="0" y1="0" x2="1920" y2="1080" gradientUnits="userSpaceOnUse">
      <stop stop-color="#FFE6BF"/>
      <stop offset="1" stop-color="#EAF4FF"/>
    </linearGradient>
    <linearGradient id="bubble" x1="0" y1="0" x2="1" y2="1">
      <stop stop-color="#FFFFFF" stop-opacity="0.9"/>
      <stop offset="1" stop-color="#FFFFFF" stop-opacity="0.3"/>
    </linearGradient>
  </defs>

  <rect width="1920" height="1080" fill="url(#bg)"/>

  <circle cx="230" cy="210" r="120" fill="url(#bubble)"/>
  <circle cx="520" cy="130" r="70" fill="url(#bubble)"/>
  <circle cx="760" cy="260" r="95" fill="url(#bubble)"/>
  <circle cx="1500" cy="170" r="110" fill="url(#bubble)"/>
  <circle cx="1740" cy="310" r="75" fill="url(#bubble)"/>

  <rect x="180" y="420" width="720" height="420" rx="36" fill="#FFFFFF" fill-opacity="0.7"/>
  <rect x="220" y="470" width="320" height="36" rx="18" fill="#D9E8F8"/>
  <rect x="220" y="532" width="460" height="28" rx="14" fill="#E5EEF8"/>
  <rect x="220" y="580" width="390" height="28" rx="14" fill="#E5EEF8"/>
  <rect x="220" y="628" width="280" height="28" rx="14" fill="#E5EEF8"/>

  <circle cx="1280" cy="590" r="210" fill="#FFF4DF"/>
  <circle cx="1280" cy="560" r="140" fill="#FAD9A6"/>
  <circle cx="1280" cy="560" r="108" fill="#FFE8C8"/>
  <rect x="1130" y="700" width="300" height="190" rx="95" fill="#9FD1FF"/>

  <circle cx="1120" cy="430" r="38" fill="#FFFFFF" fill-opacity="0.75"/>
  <circle cx="1450" cy="445" r="30" fill="#FFFFFF" fill-opacity="0.75"/>
</svg>
